inDegrees=no
num_controls=7
num_derivatives=13
num_iterations=142
num_multipliers=7
num_parameters=0
num_slacks=7
num_states=26
objective=6.374906
objective_accelerations=0.499636
objective_balance=0.025546
objective_effort=0.491201
objective_height=5.245740
objective_ligament=0.112783
solver_duration=1223.440505
status=Solve_Succeeded
success=true
DataType=double
version=3
OpenSimVersion=4.4-2022-07-23-0e9fedc
endheader
time	/jointset/ground_pelvis/pelvis_tilt/value	/jointset/ground_pelvis/pelvis_tx/value	/jointset/ground_pelvis/pelvis_ty/value	/jointset/hip_r/hip_flexion_r/value	/jointset/hip_r/hip_adduction_r/value	/jointset/hip_r/hip_rotation_r/value	/jointset/back/lumbar_extension/value	/jointset/patellofemoral_r/patellar_flexion_r/value	/jointset/knee_r/knee_flexion_r/value	/jointset/knee_r/knee_adduction_r/value	/jointset/knee_r/knee_rotation_r/value	/jointset/ankle_r/ankle_angle_r/value	/jointset/subtalar_r/subtalar_angle_r/value	/jointset/ground_pelvis/pelvis_tilt/speed	/jointset/ground_pelvis/pelvis_tx/speed	/jointset/ground_pelvis/pelvis_ty/speed	/jointset/hip_r/hip_flexion_r/speed	/jointset/hip_r/hip_adduction_r/speed	/jointset/hip_r/hip_rotation_r/speed	/jointset/back/lumbar_extension/speed	/jointset/patellofemoral_r/patellar_flexion_r/speed	/jointset/knee_r/knee_flexion_r/speed	/jointset/knee_r/knee_adduction_r/speed	/jointset/knee_r/knee_rotation_r/speed	/jointset/ankle_r/ankle_angle_r/speed	/jointset/subtalar_r/subtalar_angle_r/speed	/forceset/tau_hip_flexion_r	/forceset/tau_hip_adduction_r	/forceset/tau_hip_rotation_r	/forceset/tau_knee_flexion_r	/forceset/tau_ankle_angle_r	/forceset/tau_subtalar_angle_r	/forceset/tau_lumbar_extension	lambda_cid13_p0	lambda_cid14_p0	lambda_cid14_p1	lambda_cid14_p2	lambda_cid14_p3	lambda_cid14_p4	lambda_cid14_p5	/jointset/ground_pelvis/pelvis_tilt/accel	/jointset/ground_pelvis/pelvis_tx/accel	/jointset/ground_pelvis/pelvis_ty/accel	/jointset/hip_r/hip_flexion_r/accel	/jointset/hip_r/hip_adduction_r/accel	/jointset/hip_r/hip_rotation_r/accel	/jointset/back/lumbar_extension/accel	/jointset/patellofemoral_r/patellar_flexion_r/accel	/jointset/knee_r/knee_flexion_r/accel	/jointset/knee_r/knee_adduction_r/accel	/jointset/knee_r/knee_rotation_r/accel	/jointset/ankle_r/ankle_angle_r/accel	/jointset/subtalar_r/subtalar_angle_r/accel	gamma_cid13_p0	gamma_cid14_p0	gamma_cid14_p1	gamma_cid14_p2	gamma_cid14_p3	gamma_cid14_p4	gamma_cid14_p5
0.5	-0.2212047060769457	-0.01069454666743871	0.840926370561604	0.9064336146183278	-0.2271554347911136	-0.135138952157505	-0.3366621223552372	0.6820892591306416	0.6820892591306681	0.0366212564414471	0.1745107148804532	0.1641815864139159	0.03289286951877129	-0.5923110628009461	-0.2258209452265	-0.4037887787093628	1.965432139610664	0.0005923741746174798	0.26302284030254	-0.5895048078796713	1.646507254155294	1.6465072541553	-0.2810199484269429	-4.538330245518313e-05	0.3526682249058949	0.08939039902025218	-0.1520371802010791	-0.02481452005386003	0.008769272371256662	-0.3157474002614806	0.1361033876555279	-0.01209857648827894	0.1867256259431173	-32.34485657818925	1.264196840168946	-0.9113808893228861	-4.102681721135636	-3.929323458874786	-667.1023886712902	59.35494052673324	0.3231281034754906	0.5546366218390115	-0.3497998793501038	-1.293769505821645	-0.02928435879182381	-0.4858397910975679	1.683760704681282	-1.123457388245434	-1.123457388245418	0.4495305931635327	0.003324311174563311	-0.2796562736331199	-0.0698947325512814	-1.133910155357271e-07	-1.685096033857852e-07	3.719165695545739e-07	-1.12458624079033e-06	6.786425992586987e-08	-2.461470165213159e-07	3.391669348517007e-07
0.51	-0.2271104652024717	-0.01292481486544909	0.8368718999030886	0.9260200561996074	-0.2271518771405366	-0.1325319289412837	-0.342472670268798	0.6984957298028958	0.6984957298028739	0.03383616298115562	0.1745103840159425	0.1676933913110142	0.03378192635470099	-0.5887523968471691	-0.2202153514112214	-0.407016409820175	1.951593983740613	0.0001117740953836712	0.2584108368985338	-0.5725404284170046	1.634560879874958	1.634560879874959	-0.275943326785321	-3.993566809005895e-05	0.3496320312818048	0.0883936106015235	-0.159826110516129	-0.02346983127180203	0.009436158821686198	-0.3178784752206425	0.1335863786215073	-0.01149907593167426	0.1932813792863702	-31.41452677313371	0.2516451856537177	-0.9227516387136638	-3.992991511006895	-3.430569099936879	-671.2201243012	59.26634656619186	0.3854750517013202	0.5661348149362653	-0.2959507887414692	-1.468188407360351	-0.05867218445064842	-0.444705036295772	1.712428530454845	-1.264105442109428	-1.264105442109591	0.5450510136601359	-0.003924709563807659	-0.324715481478802	-0.1187401036272858	-9.355918036986026e-08	-9.622621863274085e-08	5.724770118266812e-07	-6.099422669888541e-07	-3.353908438003505e-09	-1.743981934853782e-07	3.258623566109927e-07
0.52	-0.2329779898264592	-0.01509850431459377	0.8327878117211051	0.9454602462661809	-0.2271533703611447	-0.1299701906433258	-0.3481116439950714	0.714775961133481	0.7147759611334752	0.03110350035005569	0.1745094916880275	0.1711730113569316	0.03466018146502433	-0.5846641624783245	-0.2145051954533601	-0.4097122834029334	1.93618183668008	-0.0004178000623500994	0.2539658566447524	-0.555189970418446	1.621259385827328	1.621259385827323	-0.2705337825837955	-0.0001576759989845964	0.3462312546704234	0.08723005389906015	-0.1676150408312037	-0.02212514248961628	0.01010304527238344	-0.3200095501798454	0.1310693695874979	-0.01089957537494834	0.1998371326295731	-30.4733093227139	-0.7653324474466836	-0.9312812760107572	-3.887885358684662	-2.942571797534489	-675.4155256652139	59.24588790265661	0.4290417864897774	0.5755490503551534	-0.2434483737394072	-1.608567743917949	-0.03907917449172123	-0.4524351610527435	1.760976411860117	-1.394481341704509	-1.394481341704487	0.516115105143909	-0.02131328187743433	-0.3525728710918862	-0.1032483892981682	-5.964985363246828e-08	3.578486851497607e-08	9.593974897804746e-07	3.202877287269255e-07	-1.375176735745185e-07	-4.652560101240497e-08	3.310207589123959e-07
0.53	-0.2388022708810897	-0.01721457390509846	0.828679455378578	0.9647388533761719	-0.2271596677625672	-0.1274551640145312	-0.3535751754515297	0.7309165211920416	0.7309165211919402	0.02842337613803677	0.174508603882326	0.1746171263146897	0.03552698508728458	-0.5801158402250778	-0.2086894250546203	-0.4118648123664012	1.919279773672927	-0.00085316930733233	0.2490794071175109	-0.537467869404898	1.606625898695456	1.606625898695453	-0.2654252050757617	-4.644589560108442e-05	0.3425392046904636	0.08610024323379026	-0.1748449185677979	-0.02130659229504577	0.01073013719889795	-0.3230699410037132	0.1298712155792107	-0.01035203447446051	0.2059770822897238	-29.52648727157066	-1.365383646292613	-0.890010921855772	-3.789993782307466	-2.778113277978698	-679.7215261808126	59.40677194640576	0.4791654912168541	0.5874440753514505	-0.1870251193057611	-1.769988023887577	-0.04725646063688936	-0.500766326188619	1.785094667260215	-1.531783108839095	-1.531783108838249	0.518325695707349	0.02349915118653601	-0.385435244348361	-0.1221331709436025	-3.524101805032052e-08	1.276424223830799e-07	1.220265660806375e-06	9.61548961058212e-07	-2.307741349820268e-07	4.191264723816825e-08	3.481692547014572e-07
0.54	-0.2445787811039813	-0.01927191518347171	0.8245523997540839	0.983840647367061	-0.2271706169886933	-0.12498780517652	-0.3588600323536398	0.7469039462372438	0.7469039462371581	0.02579635702549544	0.1745080599767001	0.1780227379360633	0.03638163344973126	-0.5751099961126537	-0.2027595330270715	-0.4134521397962798	1.900819212874906	-0.00134816499767548	0.2444322984850588	-0.5194550595449597	1.590632383167137	1.590632383167136	-0.2599127626847494	-8.889600261880186e-05	0.3385305873944708	0.08479900193643133	-0.1820747963044993	-0.02048804210055765	0.0113572291264078	-0.3261303318276226	0.1286730615708867	-0.009804493574088122	0.2121170319497818	-28.57467856549322	-1.971095430355088	-0.8485385409919187	-3.693496383667763	-2.610209617512268	-684.1200887944141	59.57481526784814	0.5205461583259308	0.5983733761166891	-0.1304080670215756	-1.920267302091546	-0.05100446356368123	-0.4045669820949672	1.819118181138537	-1.666487020994017	-1.666487020994017	0.5968880817392768	-0.05204932395768232	-0.4158863342988146	-0.1375345157159062	-2.134336417184732e-08	1.750747904950154e-07	1.341671705018434e-06	1.283100072198142e-06	-2.787714518382933e-07	8.672140826395811e-08	3.78583385838566e-07
0.55	-0.250303030733682	-0.02126948990457133	0.8204122887156676	1.002750390889617	-0.2271864644072862	-0.1225672792420561	-0.3639633510919902	0.762724858867648	0.7627248588676575	0.02322478471451496	0.1745072077820405	0.1813868138637321	0.03722289351841439	-0.5696648626191592	-0.1967454797918245	-0.4144753309930195	1.880887165212602	-0.00182204825688594	0.2396688463905347	-0.5011721153228864	1.573338231747734	1.573338231747761	-0.2543865314501107	-8.267914050324941e-05	0.3342358146947281	0.08343708727196196	-0.1893285166425401	-0.01948974295556244	0.01187275075267347	-0.3287921984576696	0.1268850140773785	-0.009223892907475323	0.218196219701885	-27.61879249816044	-2.762736923736126	-0.8241310053931792	-3.595572872819779	-2.246879817323545	-688.4246769640625	59.67562718692365	0.5677720412300532	0.6043500166926884	-0.07404187936754139	-2.066002281486334	-0.04534401790263065	-0.512790696686151	1.838368463790629	-1.79266312522347	-1.792663125218515	0.5330439570718534	0.02705455836661336	-0.4436328335402518	-0.1375154247393669	-1.295024493238274e-08	1.980373720556483e-07	1.380605629207956e-06	1.43075119312624e-06	-3.00659252429348e-07	1.091587951510721e-07	3.995338542425439e-07
0.5600000000000001	-0.2559705740092603	-0.02320663834942525	0.816264792318609	1.021453548178839	-0.2272070034106578	-0.1201944991032481	-0.3688827432039269	0.7783664731993155	0.7783664731994232	0.02070898537840364	0.1745064372293738	0.1847064700452529	0.03805013534386695	-0.5637687252707387	-0.1906742777779333	-0.414929211524649	1.859501966222912	-0.002286481948137269	0.2348831393537648	-0.4826697342587951	1.554772723415911	1.554772723415967	-0.2487581677056343	-7.25675955663957e-05	0.3296466381658381	0.08199535329041044	-0.196582236980688	-0.01849144381071839	0.01238827237883629	-0.3314540650877477	0.1250969665838206	-0.008643292241046891	0.2242754074539086	-26.66002108515771	-3.561454330384593	-0.8015400589368611	-3.496698441308148	-1.870493667372954	-692.8411212249957	59.76379987365155	0.6107469293116853	0.6098031318454179	-0.01654593399954747	-2.21089756756853	-0.04911454997169842	-0.4090179705442371	1.863005549542408	-1.920758403477924	-1.920758403477946	0.6173145837064864	-0.05127038739341312	-0.4747671001283841	-0.1534983791322193	-1.11625672597283e-08	1.916362097547187e-07	1.320573009370436e-06	1.369722325800147e-06	-2.912156335021496e-07	1.047505330717759e-07	4.091279273667651e-07
0.5700000000000001	-0.2615769887649432	-0.02508283077227379	0.8121156067101117	1.039935746774507	-0.2272321854391402	-0.117869467057354	-0.3736161092771281	0.7938161953397928	0.7938161953398629	0.01825009441287807	0.1745056230310126	0.1879788104366707	0.03886251180258862	-0.5574440964480427	-0.1845581800108736	-0.4148117422218304	1.836704813031562	-0.002749221260251162	0.2301164513919885	-0.4639806239758059	1.534968710354023	1.534968710354093	-0.2430101289069241	-8.876067304777142e-05	0.3247780356245519	0.08046690257583274	-0.2035637401682224	-0.01753226436761993	0.01279190763310016	-0.3342179015481805	0.1235465246703909	-0.008084269456710935	0.2300978620633089	-25.69980037855601	-4.278559490697181	-0.7752118816940147	-3.397072055640517	-1.541258847003899	-697.1484614358523	59.85863300558628	0.6538542403848869	0.6133599415236319	0.04033900683872791	-2.349046455678844	-0.04443754727443049	-0.5114750041728661	1.875292229042187	-2.040669876932686	-2.040669876929994	0.5552808998853086	0.0236819420631415	-0.4994555817445692	-0.154114295626659	-9.573045966119832e-09	1.846620099231313e-07	1.259958439722119e-06	1.306257152496425e-06	-2.810115148912999e-07	9.98328842697306e-08	4.163947109204919e-07
0.58	-0.2671180505561495	-0.02689769284897395	0.8079704849235245	1.058182989386053	-0.2272619116458514	-0.115592298050099	-0.3781618985552405	0.8090617879258163	0.8090617879258104	0.01584903030971556	0.1745047420438289	0.1912011550525483	0.03965928457856286	-0.5506981323597456	-0.1784082085482606	-0.4141164471425409	1.812510769409841	-0.003195317590067933	0.2253105316230462	-0.4451543752381577	1.513946812516579	1.513946812516663	-0.2371927952309445	-8.592535097506459e-05	0.3196474830586193	0.07887461674100836	-0.2105452433557762	-0.0165730849245578	0.01319554288667935	-0.3369817380086371	0.1219960827569417	-0.007525246672414067	0.2359203166726933	-24.73978498885505	-5.003588836318746	-0.7502133294813517	-3.297298349771837	-1.198994444051124	-701.5812245199141	59.94647017454022	0.6950139824323004	0.6165778709561073	0.09901922129465029	-2.490275653642871	-0.04578595351221834	-0.4168643319776157	1.890433240474451	-2.164335358589151	-2.164335358589094	0.6311735591600649	-0.04746470748255782	-0.5271571050576473	-0.1662654031814203	-8.241588794059611e-09	1.769415286562685e-07	1.198585981948115e-06	1.239619115593931e-06	-2.69816978087788e-07	9.425184810782598e-08	4.206306057312491e-07
0.59	-0.2725896228163985	-0.0286509307911069	0.8038351998154367	1.076181456930264	-0.2272960815791489	-0.1133630838953964	-0.382518836081047	0.8240911904594712	0.8240911904594661	0.01350670506982393	0.174503786572189	0.1943709167536906	0.0404397361370436	-0.5435502693108538	-0.1722375482455773	-0.4128440356533972	1.786959189046691	-0.003638817975062388	0.2205294533544939	-0.4262236691654242	1.491740368063243	1.491740368063227	-0.2312589143802023	-0.0001037388577374744	0.3142656611758414	0.07720237326341148	-0.2172614741799472	-0.0156605364213857	0.01349612067132853	-0.3397404964491337	0.1205556736041314	-0.0069689870461997	0.2414810988328302	-23.78181911942817	-5.683634117045934	-0.7183119542654085	-3.198885198031981	-0.8714320662776415	-705.8389171504182	60.03929114442173	0.7345928403718933	0.6175322034503101	0.1558511325119076	-2.621114701944591	-0.04337942981624562	-0.5091226180162209	1.895808404677437	-2.27779641930556	-2.277796419320087	0.5767142625102755	0.0215020618341364	-0.5496077955276921	-0.1693779949944797	-7.15793411669185e-09	1.68820703420589e-07	1.137146042259428e-06	1.171404534602305e-06	-2.581772022236655e-07	8.872786687420009e-08	4.223503786795514e-07
